<svg xmlns="http://www.w3.org/2000/svg" viewBox="0 0 64 64" role="img" aria-label="AtlasGate">
  <defs>
    <linearGradient id="bg" x1="12" y1="6" x2="54" y2="60" gradientUnits="userSpaceOnUse">
      <stop offset="0" stop-color="#123247" />
      <stop offset="0.55" stop-color="#142238" />
      <stop offset="1" stop-color="#0f172a" />
    </linearGradient>
    <linearGradient id="route" x1="14" y1="46" x2="50" y2="16" gradientUnits="userSpaceOnUse">
      <stop offset="0" stop-color="#2d998b" />
      <stop offset="1" stop-color="#7dd3c7" />
    </linearGradient>
  </defs>
  <rect width="64" height="64" rx="14" fill="url(#bg)" />
  <path d="M17 44C24.5 30.5 36 21.5 48 18" fill="none" stroke="url(#route)" stroke-width="5" stroke-linecap="round" />
  <path d="M34 12L37.3 22.7L48 26L37.3 29.3L34 40L30.7 29.3L20 26L30.7 22.7L34 12Z" fill="#f8fafc" />
  <path d="M48 40L51 48L59 51L51 54L48 62L45 54L37 51L45 48L48 40Z" fill="#7dd3c7" opacity="0.95" />
  <circle cx="17" cy="44" r="4" fill="#f97316" />
  <circle cx="48" cy="18" r="4" fill="#f8fafc" />
</svg>
