<svg width="520" height="280" viewBox="0 0 520 280" fill="none" xmlns="http://www.w3.org/2000/svg">
  <rect x="54" y="34" width="390" height="212" rx="28" fill="#E7F4F0"/>
  <rect x="82" y="62" width="334" height="156" rx="20" fill="#FFFFFF" stroke="#B9DDD4" stroke-width="2"/>
  <rect x="108" y="88" width="184" height="20" rx="10" fill="#EDF2F5"/>
  <circle cx="124" cy="98" r="5" fill="#1F8A78"/>
  <rect x="108" y="130" width="82" height="60" rx="14" fill="#F3F6F8" stroke="#DCE3E8"/>
  <rect x="204" y="130" width="82" height="60" rx="14" fill="#F3F6F8" stroke="#DCE3E8"/>
  <rect x="300" y="130" width="82" height="60" rx="14" fill="#F3F6F8" stroke="#DCE3E8"/>
  <rect x="124" y="146" width="28" height="28" rx="8" fill="#D6EEE8"/>
  <path d="M133 160h10M138 155v10" stroke="#1F8A78" stroke-width="2.5" stroke-linecap="round"/>
  <rect x="220" y="146" width="28" height="28" rx="8" fill="#DDE7F3"/>
  <path d="M228 159h12M228 164h8" stroke="#536174" stroke-width="2.5" stroke-linecap="round"/>
  <rect x="316" y="146" width="28" height="28" rx="8" fill="#FCE7E9"/>
  <circle cx="330" cy="160" r="6" stroke="#D45D68" stroke-width="2.5"/>
  <circle cx="448" cy="72" r="30" fill="#172033"/>
  <path d="M438 72l7 7 13-15" stroke="white" stroke-width="4" stroke-linecap="round" stroke-linejoin="round"/>
  <circle cx="60" cy="210" r="18" fill="#1F8A78"/>
  <path d="M53 210h14M60 203v14" stroke="white" stroke-width="3" stroke-linecap="round"/>
  <path d="M450 118c24 10 38 30 38 54" stroke="#B9DDD4" stroke-width="4" stroke-linecap="round" stroke-dasharray="8 10"/>
  <circle cx="488" cy="184" r="9" fill="#1F8A78"/>
</svg>
